Simulation
nRows=49
nColumns=15
endheader
time  TH_x TH_y TH_z SC_y  SC_z  SC_x  AC_y  AC_z  AC_x  GH_y  GH_z  GH_yy  EL_x  PS_y
1.55  0.000000  0.000000  0.000000  -36.697872028255034  13.702395365929775  27.189908209581  52.01598620715066  10.052355133526785  7.851009109348224  -28.67392711513887  59.593289679721806  29.585215772901723  6.831327469113634  120.000000
1.581  0.000000  0.000000  0.000000  -36.87703826550217  13.754093226787997  27.784889910180596  52.06567773108036  9.887954991977411  7.883755122534881  -28.815908315278243  59.77818701386195  29.994494634179723  6.944442076983693  120.000000
1.612  0.000000  0.000000  0.000000  -37.05057956293646  13.769673393603357  28.325894326598657  52.14091679269683  9.73239055611996  7.889115104606915  -28.982539527317417  59.91016387571211  30.437233877999546  7.055207919260215  120.000000
1.643  0.000000  0.000000  0.000000  -37.22639313801609  13.741745452203102  28.819025280978185  52.24352985922863  9.596901530250078  7.867401147859818  -29.165064783223784  59.99393001515014  30.889921165414712  7.156337015913714  120.000000
1.674  0.000000  0.000000  0.000000  -37.405262098729466  13.66703641743856  29.262244250023308  52.37203637425394  9.488644374269937  7.81955162385071  -29.35345232424145  60.03711829157727  31.330998894425072  7.2411703957183144  120.000000
1.705  0.000000  0.000000  0.000000  -37.589420117844725  13.550965257616884  29.65359848418596  52.52234835118324  9.40921711651474  7.747346900934587  -29.537332826308273  60.04742471971601  31.74307189629223  7.30399178512473  120.000000
1.736  0.000000  0.000000  0.000000  -37.77447907249383  13.400216505443927  29.986126971840875  52.68800309965109  9.357090214952661  7.653542185720691  -29.705042764486272  60.03446904203835  32.11120319010134  7.34049381882917  120.000000
1.767  0.000000  0.000000  0.000000  -37.95602720579093  13.231176279814289  30.253979117464194  52.85916583799048  9.326162761691076  7.541814277174879  -29.84749764791587  60.00586604374748  32.4241013113713  7.347691242391088  120.000000
1.798  0.000000  0.000000  0.000000  -38.12485737576984  13.057071073726629  30.45024883570758  53.0250096651793  9.310037478872013  7.417197621302992  -29.95532731836719  59.96925067550505  32.67094859396311  7.3253020894244365  120.000000
1.829  0.000000  0.000000  0.000000  -38.272185465717  12.896993476089442  30.57329729422571  53.172099882820284  9.300134445277514  7.285220453929386  -30.024296704284758  59.9281934608443  32.84355870615272  7.2754579150234955  120.000000
1.8599999999999999  0.000000  0.000000  0.000000  -38.3861924565121  12.764436176318794  30.620990166731826  53.28803653727717  9.289294521798295  7.152008934075108  -30.0511978522273  59.88443661465524  32.93387764832261  7.203741030667351  120.000000
1.891  0.000000  0.000000  0.000000  -38.45745361204773  12.673575487295139  30.599220259467668  53.36067439453979  9.26975318820623  7.022540340389062  -30.038275114893715  59.83428720006275  32.937475252430524  7.117777619547006  120.000000
1.922  0.000000  0.000000  0.000000  -38.47481162623079  12.633034496155231  30.510216378507554  53.38159026379833  9.235098592121682  6.900473975162101  -29.98909406572737  59.77079201424944  32.8525001747003  7.0268078256795246  120.000000
1.953  0.000000  0.000000  0.000000  -38.43239595160513  12.648009885627202  30.363017972125753  53.34651731455637  9.178765009477878  6.78634267731701  -29.9103858578354  59.681161853194396  32.68267352952396  6.940203684321331  120.000000
1.984  0.000000  0.000000  0.000000  -38.323205866573936  12.71918912268768  30.15892464521234  53.25665233463017  9.094571463480332  6.677827996854781  -29.809707771266915  59.54869665734135  32.43672374334486  6.866609240617035  120.000000
2.015  0.000000  0.000000  0.000000  -38.14809493891056  12.841493067205288  29.90249502048113  53.119469445553996  8.97669734646224  6.569074980660219  -29.694137338192007  59.352072727318024  32.12810983384613  6.813746958656145  120.000000
2.046  0.000000  0.000000  0.000000  -37.90626566315699  13.00655137799876  29.589253687284263  52.946382404388565  8.819735629892495  6.451922038253583  -29.57068165882556  59.0671404056508  31.773114785279848  6.787935944666736  120.000000
2.077  0.000000  0.000000  0.000000  -37.60564171726838  13.199797174312085  29.216821618380866  52.7529639769594  8.620678447153844  6.316874418779448  -29.44247355907099  58.66817594043829  31.386539503051647  6.795435132415787  120.000000
2.108  0.000000  0.000000  0.000000  -37.251273010531214  13.404717665661723  28.776287969744118  52.55398035115285  8.37850407665344  6.154772075341924  -29.311198639097913  58.12975993057491  30.979234502162413  6.842211408839779  120.000000
2.139  0.000000  0.000000  0.000000  -36.856527982418584  13.600189846497118  28.2631450172006  52.36360657712896  8.096681123633914  5.958221157915239  -29.172609073742024  57.42877433981834  30.55394038043312  6.9355090869680645  120.000000
2.17  0.000000  0.000000  0.000000  -36.430986726018844  13.764961492084053  27.669369162935972  52.1909409270942  7.781727375323472  5.7220306581006115  -29.0201631596034  56.54590166792625  30.105801157224956  7.08296479565611  120.000000
2.201  0.000000  0.000000  0.000000  -35.991232922642524  13.876728161836905  26.992752648055593  52.041243524279814  7.443865718282863  5.443802282055673  -28.84267868150049  55.46651274331975  29.624008147555518  7.292478458078431  120.000000
2.232  0.000000  0.000000  0.000000  -35.54906104300192  13.915452680908732  26.228123460934587  51.91405234210463  7.094534931156752  5.123649872799105  -28.62728309095904  54.18332538269658  29.097303232376486  7.5698868766506315  120.000000
2.263  0.000000  0.000000  0.000000  -35.12017899238989  13.86585227742238  25.375883716751233  51.80512041012431  6.745731291564653  4.764859532023322  -28.35928438565661  52.69683939283782  28.520553630740732  7.916525561358557  120.000000
2.294  0.000000  0.000000  0.000000  -34.71352440244926  13.716903977242081  24.43441876254323  51.70714102575114  6.408496912991745  4.373618927349802  -28.02414618938314  51.01821710980577  27.901073975587387  8.325893578123727  120.000000
2.325  0.000000  0.000000  0.000000  -34.3372426691256  13.46646427320686  23.408085237477497  51.61087703944406  6.091604593175732  3.959232327106175  -27.611850640910237  49.16663925501696  27.265130491447763  8.780697970501476  120.000000
2.356  0.000000  0.000000  0.000000  -33.99122726945928  13.116229337059336  22.30140582231796  51.50787790178485  5.802480985385858  3.533540272682423  -27.11762153288517  47.17091235758812  26.6586372293548  9.254021872099916  120.000000
2.387  0.000000  0.000000  0.000000  -33.67200633420363  12.677569405397369  21.126835847968206  51.390737087989166  5.5462820436845846  3.110024241131835  -26.54886147835244  45.0638541160723  26.147352174213857  9.712017140653087  120.000000
2.418  0.000000  0.000000  0.000000  -33.369621874310795  12.163600379143794  19.898858416235715  51.25620727783792  5.328194169712246  2.703215442808041  -25.923650242037894  42.8825200587706  25.80970901707196  10.121689214052967  120.000000
2.449  0.000000  0.000000  0.000000  -33.07330579598822  11.594313387020287  18.638160500786377  51.10492866265659  5.150291424944538  2.325986773546433  -25.27794301874964  40.660875649997095  25.734126725055134  10.456439488461944  120.000000
2.48  0.000000  0.000000  0.000000  -32.77007181993479  10.987245173643982  17.363539158135964  50.94189378647499  5.012539373085376  1.9901804939280563  -24.662365650198442  38.43003929101106  26.010379351199212  10.703383387498505  120.000000
2.511  0.000000  0.000000  0.000000  -32.450178110650185  10.362115374948909  16.09518036186959  50.77583222442815  4.911410297796384  1.7051673847516686  -24.142125225219058  36.215672101460584  26.72515574191888  10.864636242817728  120.000000
2.542  0.000000  0.000000  0.000000  -32.10315591935341  9.735259595204758  14.84964459524372  50.61788210089738  4.842222545550786  1.4794052751873372  -23.789917551669458  34.04082569528551  27.954458259989714  10.956437860996262  120.000000
2.573  0.000000  0.000000  0.000000  -31.724335008936233  9.122067893651067  13.64250206325473  50.480133463866835  4.79872508434325  1.3192624498299474  -23.680374190664338  31.925879595908135  29.759719024564813  11.003596431812436  120.000000
2.604  0.000000  0.000000  0.000000  -31.309482104817015  8.534420591718087  12.48478182334156  50.37318682626661  4.774404194887029  1.2286309506246607  -23.882979039252362  29.889662598739697  32.182521127085835  11.035120811245552  120.000000
2.635  0.000000  0.000000  0.000000  -30.862437010443774  7.981508716248945  11.38564841763191  50.30436606794474  4.763755183988947  1.2080321566220464  -24.452627716107333  27.950130683116953  35.238646312385576  11.0799267590613  120.000000
2.666  0.000000  0.000000  0.000000  -30.38823205190896  7.469951517007484  10.350680130908282  50.275899504751976  4.7624911055771  1.25346216047254  -25.42437764988725  26.12315349143605  38.91471627354824  11.164780214281738  120.000000
2.697  0.000000  0.000000  0.000000  -29.89960726894545  7.003624668378051  9.384303858336569  50.28427787821999  4.768871056356285  1.3565891109188046  -26.80656669443094  24.422878421333944  43.16507298537971  11.31258796791523  120.000000
2.7279999999999998  0.000000  0.000000  0.000000  -29.40805554546333  6.584945116660527  8.488899281500942  50.3207375611104  4.7831951462548385  1.5049028730752931  -28.581864032821212  22.859215773442084  47.915130880573884  11.541719262043133  120.000000
2.759  0.000000  0.000000  0.000000  -28.928250266284522  6.214388273091728  7.666508737582017  50.37283655337203  4.808724716891734  1.6828813226176607  -30.70616698051069  21.43791315302175  53.06356716840219  11.864125559734552  120.000000
2.79  0.000000  0.000000  0.000000  -28.470347163104485  5.891196516837927  6.917974427682652  50.42637640496067  4.851101428588026  1.873985337803265  -33.11461870252561  20.157539475755733  58.49021785798052  12.283898116320412  120.000000
2.821  0.000000  0.000000  0.000000  -28.044449926730554  5.612787598249147  6.2432159210173195  50.46814608252206  4.9179268429928005  2.061228251544129  -35.72615552038214  19.0092159726497  64.06263825369949  12.795461162487221  120.000000
2.852  0.000000  0.000000  0.000000  -27.65690157177845  5.374896468342051  5.642908443562747  50.486576145242324  5.016769718164929  2.2289340829324487  -38.45380839013073  17.974581819754928  69.64727321447963  13.384672005274828  120.000000
2.883  0.000000  0.000000  0.000000  -27.315699810712765  5.172499357383423  5.116940512215959  50.47481266037886  5.154481107721837  2.3625477543826356  -41.211376086553685  17.02577824569684  75.11739388076847  14.031451921224798  120.000000
2.914  0.000000  0.000000  0.000000  -27.028370955626404  4.9988053092345845  4.665554668792157  50.42957260896987  5.334556497132964  2.4510255904458234  -43.92798396682527  16.124824856882057  80.36864259993507  14.714068880825584  120.000000
2.945  0.000000  0.000000  0.000000  -26.806232305107596  4.845430405066487  4.287009541681569  50.35207188981503  5.555849232574582  2.487758552576378  -46.5615086898705  15.2268178937738  85.33470917578339  15.412288109988696  120.000000
2.976  0.000000  0.000000  0.000000  -26.657639807133755  4.703625908004642  3.9762501198870748  50.25110129911168  5.80966703568091  2.4694652359280194  -49.11064749905799  14.282485150845758  90.00271017686858  16.11244328068879  120.000000
3.007  0.000000  0.000000  0.000000  -26.57735751052745  4.566695380495656  3.716882562638995  50.16496736779896  6.0770243999662785  2.3918900632078777  -51.595475548517065  13.231051690049517  94.40047216893804  16.815831514105046  120.000000
3.038  0.000000  0.000000  0.000000  -26.538355281411107  4.416451451952592  3.4860222334295243  50.14448565838753  6.333181604223529  2.2677441828653415  -54.097874098381425  12.010914989129096  98.63920740445472  17.539060970486812  120.000000
